<svg width="12" height="12" viewBox="0 0 12 12" fill="none" xmlns="http://www.w3.org/2000/svg">
<path d="M5.71332 11.2098C4.63794 11.2098 3.5867 10.891 2.69254 10.2935C1.79838 9.6961 1.10145 8.84695 0.689876 7.85345C0.2783 6.85994 0.170563 5.7667 0.380288 4.71197C0.590013 3.65724 1.10778 2.68838 1.86812 1.9279C2.62846 1.16742 3.59723 0.649478 4.65192 0.439562C5.70662 0.229646 6.79987 0.337185 7.79345 0.748581C8.78703 1.15998 9.63631 1.85675 10.2339 2.75081C10.8315 3.64486 11.1506 4.69603 11.1508 5.77142C11.1495 7.2132 10.5762 8.59558 9.55679 9.61517C8.53738 10.6348 7.15511 11.2083 5.71332 11.2098ZM5.71332 0.955428C4.76081 0.955428 3.82968 1.23788 3.0377 1.76707C2.24571 2.29626 1.62844 3.04841 1.26393 3.92842C0.899415 4.80842 0.804043 5.77676 0.989869 6.71097C1.17569 7.64518 1.63437 8.50331 2.3079 9.17683C2.98143 9.85036 3.83956 10.309 4.77377 10.4949C5.70798 10.6807 6.67631 10.5853 7.55632 10.2208C8.43633 9.8563 9.18848 9.23902 9.71767 8.44704C10.2469 7.65505 10.5293 6.72393 10.5293 5.77142C10.5267 4.49494 10.0185 3.27148 9.11586 2.36887C8.21325 1.46626 6.9898 0.95803 5.71332 0.955428Z" fill="#00ADB5"/>
<path d="M7.38191 7.75029C7.34114 7.75041 7.30075 7.74247 7.26305 7.72692C7.22536 7.71137 7.19112 7.68852 7.16229 7.65968L5.49393 5.99231C5.46514 5.96345 5.44231 5.9292 5.42677 5.89151C5.41122 5.85383 5.40325 5.81345 5.40332 5.77268V2.24391C5.40779 2.16453 5.44248 2.08986 5.50026 2.03525C5.55804 1.98063 5.63454 1.9502 5.71405 1.9502C5.79356 1.9502 5.87005 1.98063 5.92783 2.03525C5.98561 2.08986 6.0203 2.16453 6.02477 2.24391V5.64366L7.60055 7.21945C7.6439 7.26297 7.6734 7.31834 7.68534 7.3786C7.69727 7.43885 7.69111 7.50129 7.66763 7.55805C7.64415 7.61481 7.60439 7.66335 7.55337 7.69756C7.50235 7.73177 7.44235 7.75012 7.38093 7.75029H7.38191Z" fill="#00ADB5"/>
</svg>
