<svg width="24" height="24" viewBox="0 0 24 24" fill="none" xmlns="http://www.w3.org/2000/svg">
<circle cx="11.7342" cy="12.3543" r="11.3924" fill="#6CD3E0"/>
<path fill-rule="evenodd" clip-rule="evenodd" d="M4.13916 12.3547C4.13916 8.1547 7.5341 4.75977 11.7341 4.75977C15.9265 4.75977 19.329 8.1623 19.329 12.3547C19.329 16.5471 15.9341 19.9496 11.7341 19.9496C7.5341 19.9496 4.13916 16.5547 4.13916 12.3547ZM9.64548 10.7446C9.64548 10.0458 11.0429 9.69647 11.7341 9.69647C12.4252 9.69647 13.8227 10.0534 13.8227 10.7446V14.2534H12.6835V17.6712H10.7847V14.2534H9.64548V10.7446ZM11.7341 18.4307C8.37714 18.4307 5.65815 15.7117 5.65815 12.3547C5.65815 8.99774 8.37714 6.27875 11.7341 6.27875C15.0911 6.27875 17.81 8.99774 17.81 12.3547C17.81 15.7117 15.0911 18.4307 11.7341 18.4307ZM10.5948 8.17749C10.5948 7.5483 11.1049 7.03825 11.7341 7.03825C12.3633 7.03825 12.8733 7.5483 12.8733 8.17749C12.8733 8.80667 12.3633 9.31673 11.7341 9.31673C11.1049 9.31673 10.5948 8.80667 10.5948 8.17749Z" fill="white"/>
</svg>
