<svg width="24" height="23" viewBox="0 0 24 23" fill="none" xmlns="http://www.w3.org/2000/svg">
<circle cx="11.7342" cy="11.4808" r="11.3924" fill="#6CD3E0"/>
<path d="M17.5919 13.4359L18.5693 12.4584L17.5919 11.481L15.1516 13.9212L9.29363 8.06323L11.7339 5.62298L10.7564 4.64551L9.77894 5.62298L8.80148 4.64551L7.33869 6.10829L6.36122 5.13082L5.38375 6.10829L6.36122 7.08576L4.89844 8.54855L5.87591 9.52601L4.89844 10.5035L5.87591 11.481L8.31616 9.0407L14.1741 14.8987L11.7339 17.3389L12.7113 18.3164L13.6888 17.3389L14.6663 18.3164L16.1291 16.8536L17.1065 17.8311L18.084 16.8536L17.1065 15.8761L18.5693 14.4134L17.5919 13.4359Z" fill="white"/>
</svg>
