<svg width="10" height="12" viewBox="0 0 10 12" fill="none" xmlns="http://www.w3.org/2000/svg">
<path d="M4.72549 1.49107C5.14915 1.90357 5.47913 2.40236 5.69307 2.95361C5.90701 3.50486 5.99991 4.09567 5.96544 4.68598C5.96326 4.8668 6.02594 5.04241 6.14212 5.18099C6.2583 5.31957 6.42027 5.41195 6.5987 5.44137C6.63805 5.45255 6.67897 5.45721 6.71984 5.45515C6.9182 5.45647 7.10901 5.3792 7.25056 5.24023C7.39211 5.10126 7.47289 4.9119 7.47523 4.71355V4.60522C7.47523 4.55105 7.47523 4.42991 7.48902 4.29498C7.48858 4.26821 7.4961 4.24191 7.51065 4.21943C7.52519 4.19695 7.54611 4.17931 7.57071 4.16875C7.59532 4.15819 7.62251 4.15519 7.64883 4.16013C7.67514 4.16507 7.6994 4.17773 7.7185 4.1965C8.43259 4.96265 8.83628 5.96696 8.85109 7.0142C8.83577 7.48006 8.72772 7.93819 8.53325 8.3618C8.33878 8.78541 8.0618 9.16599 7.7185 9.48128C7.0237 10.1661 6.09194 10.5573 5.11649 10.5735C4.14236 10.551 3.21279 10.1608 2.51446 9.48128C2.17116 9.16599 1.89418 8.78541 1.69971 8.3618C1.50524 7.93819 1.39719 7.48006 1.38187 7.0142C1.4849 5.78527 2.05395 4.64225 2.97243 3.81929C3.64755 3.17507 4.12572 2.35227 4.35124 1.44676C4.35385 1.42303 4.36299 1.4005 4.37764 1.38165C4.3923 1.36281 4.41188 1.34841 4.43424 1.34004C4.45659 1.33167 4.48083 1.32966 4.50425 1.33425C4.52768 1.33883 4.54937 1.34982 4.56692 1.366L4.72549 1.49107ZM3.90312 0.359465C3.8577 0.358281 3.81273 0.368802 3.77255 0.390017C3.73236 0.411231 3.6983 0.442427 3.67365 0.480604C3.61948 0.579091 3.70024 0.776061 3.79479 1.03311C3.98388 1.6132 3.40085 2.54291 2.58144 3.47361C1.57178 4.39536 0.954195 5.66932 0.855957 7.03291C0.900298 8.1367 1.36996 9.18052 2.16661 9.94581C2.96326 10.7111 4.02509 11.1385 5.12977 11.1385C6.23445 11.1385 7.2963 10.7111 8.09295 9.94581C8.88959 9.18052 9.35926 8.1367 9.4036 7.03291C9.39417 6.3417 9.23503 5.66074 8.93715 5.03693C8.63927 4.41313 8.20974 3.8613 7.67812 3.41944L7.54318 3.31111C7.48328 3.25923 7.40675 3.23057 7.3275 3.23035C7.26527 3.23006 7.20429 3.24775 7.15187 3.28129C7.09946 3.31484 7.05784 3.36281 7.03204 3.41944C6.98273 3.81747 6.95577 4.21796 6.95128 4.61901V4.71749C6.95168 4.74592 6.94638 4.77415 6.93568 4.8005C6.92498 4.82685 6.9091 4.85078 6.88899 4.87089C6.86888 4.891 6.84495 4.90687 6.8186 4.91757C6.79225 4.92827 6.76403 4.93358 6.7356 4.93318H6.69522C6.64177 4.92323 6.59352 4.89478 6.55895 4.85282C6.52437 4.81086 6.50567 4.75807 6.50613 4.7037C6.54378 4.03713 6.4368 3.3703 6.19251 2.74896C5.94822 2.12761 5.57242 1.56647 5.09088 1.10402C4.77806 0.746415 4.3671 0.488543 3.90903 0.362418L3.90312 0.359465Z" fill="#00ADB5"/>
</svg>
